HIERARCHY
ROOT Hips
{
	OFFSET 0.000000 0.000000 0.000000
	CHANNELS 6 Xposition Yposition Zposition Zrotation Yrotation Xrotation 
	JOINT LHipJoint
	{
		OFFSET 0.000000 0.000000 0.000000
		CHANNELS 3 Zrotation Yrotation Xrotation
		JOINT LeftUpLeg
		{
			OFFSET 1.363060 -1.794630 0.839290
			CHANNELS 3 Zrotation Yrotation Xrotation
			JOINT LeftLeg
			{
				OFFSET 2.448110 -6.726130 0.000000
				CHANNELS 3 Zrotation Yrotation Xrotation
				JOINT LeftFoot
				{
					OFFSET 2.562200 -7.039590 0.000000
					CHANNELS 3 Zrotation Yrotation Xrotation
					JOINT LeftToeBase
					{
						OFFSET 0.157640 -0.433110 2.322550
						CHANNELS 3 Zrotation Yrotation Xrotation
						End Site
						{
							OFFSET 0.000000 0.000000 0.000000
						}
					}
				}
			}
		}
	}
	JOINT RHipJoint
	{
		OFFSET 0.000000 0.000000 0.000000
		CHANNELS 3 Zrotation Yrotation Xrotation
		JOINT RightUpLeg
		{
			OFFSET -1.305520 -1.794630 0.839290
			CHANNELS 3 Zrotation Yrotation Xrotation
			JOINT RightLeg
			{
				OFFSET -2.542530 -6.985550 0.000000
				CHANNELS 3 Zrotation Yrotation Xrotation
				JOINT RightFoot
				{
					OFFSET -2.568260 -7.056230 0.000000
					CHANNELS 3 Zrotation Yrotation Xrotation
					JOINT RightToeBase
					{
						OFFSET -0.164730 -0.452590 2.363150
						CHANNELS 3 Zrotation Yrotation Xrotation
						End Site
						{
							OFFSET 0.000000 0.000000 0.000000
						}
					}
				}
			}
		}
	}
	JOINT LowerBack
	{
		OFFSET 0.000000 0.000000 0.000000
		CHANNELS 3 Zrotation Yrotation Xrotation
		JOINT Spine
		{
			OFFSET 0.028270 2.035590 -0.193380
			CHANNELS 3 Zrotation Yrotation Xrotation
			JOINT Spine1
			{
				OFFSET 0.056720 2.048850 -0.042750
				CHANNELS 3 Zrotation Yrotation Xrotation
				JOINT Neck
				{
					OFFSET 0.000000 0.000000 0.000000
					CHANNELS 3 Zrotation Yrotation Xrotation
					JOINT Neck1
					{
						OFFSET -0.054170 1.746240 0.172020
						CHANNELS 3 Zrotation Yrotation Xrotation
						JOINT Head
						{
							OFFSET 0.104070 1.761360 -0.123970
							CHANNELS 3 Zrotation Yrotation Xrotation
							End Site
							{
								OFFSET 0.000000 0.000000 0.000000
							}
						}
					}
				}
				JOINT LeftShoulder
				{
					OFFSET 0.000000 0.000000 0.000000
					CHANNELS 3 Zrotation Yrotation Xrotation
					JOINT LeftArm
					{
						OFFSET 3.362410 1.200890 -0.311210
						CHANNELS 3 Zrotation Yrotation Xrotation
						JOINT LeftForeArm
						{
							OFFSET 4.983000 -0.000000 -0.000000
							CHANNELS 3 Zrotation Yrotation Xrotation
							JOINT LeftHand
							{
								OFFSET 3.483560 -0.000000 -0.000000
								CHANNELS 3 Zrotation Yrotation Xrotation
								JOINT LeftFingerBase
								{
									OFFSET 0.000000 0.000000 0.000000
									CHANNELS 3 Zrotation Yrotation Xrotation
									JOINT LeftHandIndex1
									{
										OFFSET 0.715260 -0.000000 -0.000000
										CHANNELS 3 Zrotation Yrotation Xrotation
										End Site
										{
											OFFSET 0.000000 0.000000 0.000000
										}
									}
								}
								JOINT LThumb
								{
									OFFSET 0.000000 0.000000 0.000000
									CHANNELS 3 Zrotation Yrotation Xrotation
									End Site
									{
										OFFSET 0.000000 0.000000 0.000000
									}
								}
							}
						}
					}
				}
				JOINT RightShoulder
				{
					OFFSET 0.000000 0.000000 0.000000
					CHANNELS 3 Zrotation Yrotation Xrotation
					JOINT RightArm
					{
						OFFSET -3.136600 1.374050 -0.404650
						CHANNELS 3 Zrotation Yrotation Xrotation
						JOINT RightForeArm
						{
							OFFSET -5.241900 -0.000000 -0.000000
							CHANNELS 3 Zrotation Yrotation Xrotation
							JOINT RightHand
							{
								OFFSET -3.444170 -0.000000 -0.000000
								CHANNELS 3 Zrotation Yrotation Xrotation
								JOINT RightFingerBase
								{
									OFFSET 0.000000 0.000000 0.000000
									CHANNELS 3 Zrotation Yrotation Xrotation
									JOINT RightHandIndex1
									{
										OFFSET -0.622530 -0.000000 -0.000000
										CHANNELS 3 Zrotation Yrotation Xrotation
										End Site
										{
											OFFSET 0.000000 0.000000 0.000000
										}
									}
								}
								JOINT RThumb
								{
									OFFSET 0.000000 0.000000 0.000000
									CHANNELS 3 Zrotation Yrotation Xrotation
									End Site
									{
										OFFSET 0.000000 0.000000 0.000000
									}
								}
							}
						}
					}
				}
			}
		}
	}
}
MOTION
Frames: 9
Frame Time: 0.016667
-0.005709 17.426974 -0.005709 -0.340564 -12.980075 3.617305 -2.769284 20.933939 3.898904 -18.940920 -2.959355 -12.304412 -7.041654 -6.753634 -24.337008 1.810605 15.460936 32.978334 0.000000 0.000000 0.000000 2.177505 -35.481755 -4.645100 47.311524 23.906669 -9.113792 -24.919783 8.873989 44.695293 -3.056329 16.453231 -21.030615 0.000000 0.000000 0.000000 -0.693377 4.074474 6.573989 0.453991 3.365590 13.078653 -0.596515 4.176376 -12.501702 4.419028 -0.671745 -6.547378 -0.518135 -0.067724 0.135265 0.000000 0.000000 0.000000 -1.699507 14.006823 9.666357 -69.532176 -5.857976 9.334736 9.980915 -89.556929 0.222809 5.158862 -11.571535 0.106903 5.209601 -11.551889 0.000000 0.000000 0.000000 0.000000 0.000000 0.000000 0.000000 -2.272938 -10.951068 7.373677 64.582421 3.685696 21.312194 14.014933 80.024378 0.272496 -1.303481 10.116429 0.134484 -1.322859 10.117097 0.000000 0.000000 0.000000 0.000000 0.000000 0.000000 0.000000 
-0.000882 17.453980 0.148293 -0.160883 -13.038821 3.643356 -2.380197 20.962929 3.666958 -19.623251 -2.830973 -11.777194 -6.888571 -6.443925 -23.309442 1.513907 14.554198 30.965043 0.000000 0.000000 0.000000 1.924742 -35.305450 -4.203299 46.530255 24.146240 -9.565078 -24.354297 8.524163 45.310744 -3.049872 16.487803 -21.667264 0.000000 0.000000 0.000000 -0.629291 4.003674 6.266465 -0.026272 3.311007 13.426592 -0.501699 4.071917 -11.993779 4.569912 -0.666255 -6.852117 -0.457213 -0.054718 -0.068683 0.000000 0.000000 0.000000 -1.105197 13.864271 9.355644 -69.585724 -6.408522 9.124147 9.875146 -89.565219 0.174548 5.471787 -11.848125 0.081965 5.532580 -11.824294 0.000000 0.000000 0.000000 0.000000 0.000000 0.000000 0.000000 -2.962099 -10.620123 7.536127 65.552145 4.259711 20.488671 15.625361 78.323152 0.291662 -1.137508 10.610440 0.143927 -1.157366 10.611653 0.000000 0.000000 0.000000 0.000000 0.000000 0.000000 0.000000 
0.006208 17.482804 0.301689 0.005134 -13.084729 3.684756 -2.025474 20.976986 3.415073 -20.255219 -2.708740 -11.294632 -6.748738 -6.104876 -22.220083 1.251074 13.663142 28.972945 0.000000 0.000000 0.000000 1.699959 -35.091918 -3.755675 45.699236 24.382078 -10.059466 -23.781970 8.160449 45.887356 -3.035031 16.508482 -22.246861 0.000000 0.000000 0.000000 -0.569319 3.922427 5.979224 -0.463280 3.250765 13.706766 -0.437394 3.965064 -11.476623 4.715244 -0.660375 -7.136487 -0.392344 -0.041523 -0.261322 0.000000 0.000000 0.000000 -0.509272 13.732453 9.050171 -69.607100 -6.944174 8.917489 9.758074 -89.566496 0.124447 5.788594 -12.122100 0.056039 5.860026 -12.093776 0.000000 0.000000 0.000000 0.000000 0.000000 0.000000 0.000000 -3.674966 -10.300406 7.690853 66.531511 4.849738 19.589555 17.271053 76.513288 0.311300 -0.960705 11.103382 0.153614 -0.980768 11.105177 0.000000 0.000000 0.000000 0.000000 0.000000 0.000000 0.000000 
0.015326 17.512869 0.453892 0.009668 -12.622777 3.439958 -1.268861 21.049729 3.140406 -21.003420 -2.713010 -10.715588 -6.854756 -5.628183 -20.312643 0.974146 12.409184 26.531254 0.000000 0.000000 0.000000 0.886667 -34.567276 -3.964998 45.142347 23.279037 -9.383991 -22.709534 7.249228 45.598289 -2.884418 16.410693 -23.289646 0.000000 0.000000 0.000000 -0.468607 3.727588 6.197060 -0.434458 3.060259 13.750146 -0.610057 3.788261 -11.244210 4.790861 -0.645105 -7.269481 -0.297317 -0.031119 -0.314870 0.000000 0.000000 0.000000 -0.359283 13.672096 8.918849 -69.583378 -7.093767 8.856376 9.835750 -89.581222 0.118830 5.838373 -12.135899 0.053139 5.910891 -12.106980 0.000000 0.000000 0.000000 0.000000 0.000000 0.000000 0.000000 -4.119982 -10.275561 7.828943 67.176835 5.152789 18.908561 18.548773 74.991011 0.327536 -0.805589 11.488164 0.161642 -0.825458 11.490463 0.000000 0.000000 0.000000 0.000000 0.000000 0.000000 0.000000 
0.026093 17.543897 0.604721 -0.009602 -12.090197 3.184836 -0.561584 21.087438 2.849862 -21.672445 -2.738488 -10.186061 -6.944362 -5.115049 -18.315291 0.734147 11.184907 24.153671 0.000000 0.000000 0.000000 0.076577 -33.921761 -4.202390 44.526462 22.094872 -8.674222 -21.565416 6.273626 45.199310 -2.719406 16.275525 -24.299050 0.000000 0.000000 0.000000 -0.341035 3.506808 6.430619 -0.390604 2.846895 13.795396 -0.789520 3.592607 -11.018340 4.864533 -0.629970 -7.401092 -0.202598 -0.020843 -0.364273 0.000000 0.000000 0.000000 -0.209685 13.606024 8.790770 -69.557123 -7.239860 8.796164 9.913243 -89.596017 0.113462 5.886522 -12.148171 0.050368 5.960076 -12.118677 0.000000 0.000000 0.000000 0.000000 0.000000 0.000000 0.000000 -4.573287 -10.266482 7.959173 67.824418 5.469765 18.175275 19.816215 73.395782 0.343604 -0.648411 11.867087 0.169596 -0.667895 11.869883 0.000000 0.000000 0.000000 0.000000 0.000000 0.000000 0.000000 
0.052238 17.584966 0.767900 0.053263 -12.035469 3.042767 -0.257648 20.771071 2.447809 -22.131173 -2.332718 -9.304093 -6.670009 -4.779575 -17.430001 0.585757 10.524250 22.591159 0.000000 0.000000 0.000000 -0.661271 -33.268162 -4.019410 43.727413 21.404613 -8.434986 -20.422705 5.510932 44.863774 -2.694641 16.359348 -25.035092 0.000000 0.000000 0.000000 0.183298 3.501830 6.454600 -0.923059 2.853216 13.643072 -0.869234 3.525573 -10.502287 4.192007 -0.485248 -6.427438 0.266335 0.030935 -0.559811 0.000000 0.000000 0.000000 -0.081903 13.281427 8.697603 -69.218695 -7.273928 9.790339 8.333553 -88.877861 0.107365 5.915900 -12.608915 0.046563 5.997351 -12.577500 0.000000 0.000000 0.000000 0.000000 0.000000 0.000000 0.000000 -4.144139 -10.349475 7.728880 67.715491 5.454601 18.422737 18.940100 74.352857 0.328189 -0.789938 11.661124 0.161905 -0.810408 11.663429 0.000000 0.000000 0.000000 0.000000 0.000000 0.000000 0.000000 
0.094044 17.636325 0.944004 0.138023 -12.033725 2.978493 -0.395608 20.560808 2.369718 -22.218550 -2.171609 -8.952225 -6.401451 -4.435098 -16.529558 0.439549 9.903154 21.048216 0.000000 0.000000 0.000000 -1.444340 -32.714050 -3.490699 42.764478 20.985812 -8.542130 -19.124666 4.791333 44.474845 -2.724560 16.533636 -25.603614 0.000000 0.000000 0.000000 1.229643 3.566670 5.811184 -2.036704 2.909090 14.582596 -0.878417 3.409399 -10.407943 3.539961 -0.338380 -5.576373 0.684365 0.081089 -0.816632 0.000000 0.000000 0.000000 -0.017886 12.975408 8.514543 -68.741674 -7.358487 11.004373 6.457971 -88.049619 0.100382 5.948679 -13.157996 0.042094 6.040073 -13.124280 0.000000 0.000000 0.000000 0.000000 0.000000 0.000000 0.000000 -3.618003 -10.550139 7.414139 67.536265 5.448100 18.696329 18.001813 75.306415 0.313282 -0.941808 11.444607 0.154476 -0.963154 11.446387 0.000000 0.000000 0.000000 0.000000 0.000000 0.000000 0.000000 
0.134850 17.686211 1.116923 0.171296 -12.120126 2.961528 -0.630726 20.290304 2.337168 -22.157571 -1.964713 -8.608056 -6.084084 -4.175666 -15.968499 0.330787 9.442590 19.778393 0.000000 0.000000 0.000000 -2.141559 -32.180666 -2.843147 41.701147 20.617751 -8.763306 -17.670270 4.092520 43.927233 -2.802249 16.830870 -26.229426 0.000000 0.000000 0.000000 2.248258 3.657960 5.031767 -3.107561 3.000494 15.834726 -0.885392 3.311544 -10.597304 3.175459 -0.243994 -5.118143 0.951001 0.114016 -0.993812 0.000000 0.000000 0.000000 -0.071796 12.827466 8.383942 -68.440697 -7.529836 11.390502 5.896339 -87.790436 0.093868 5.992621 -13.354149 0.038414 6.088367 -13.319209 0.000000 0.000000 0.000000 0.000000 0.000000 0.000000 0.000000 -3.249377 -10.749386 7.181849 67.445696 5.461610 18.804300 17.566401 75.697831 0.306846 -1.019632 11.350813 0.151267 -1.041421 11.352330 0.000000 0.000000 0.000000 0.000000 0.000000 0.000000 0.000000 
0.176410 17.735597 1.288180 0.215246 -12.177286 2.957375 -0.918318 19.989803 2.298357 -22.053579 -1.768472 -8.298186 -5.786120 -3.909672 -15.404521 0.236005 9.013391 18.566477 0.000000 0.000000 0.000000 -2.777408 -31.600185 -2.188488 40.540192 20.269522 -9.046033 -16.148983 3.384728 43.338098 -2.848216 17.093929 -26.816676 0.000000 0.000000 0.000000 3.269561 3.759822 4.255955 -4.195072 3.103533 17.047129 -0.875339 3.200417 -10.767658 2.824661 -0.149927 -4.668173 1.214932 0.145888 -1.151689 0.000000 0.000000 0.000000 -0.109503 12.670519 8.262958 -68.152124 -7.704007 11.762781 5.350861 -87.541020 0.087350 6.035511 -13.545748 0.034727 6.135612 -13.509593 0.000000 0.000000 0.000000 0.000000 0.000000 0.000000 0.000000 -2.895628 -10.950748 6.954809 67.363837 5.472222 18.906652 17.141650 76.077389 0.300438 -1.096277 11.258947 0.148071 -1.118497 11.260199 0.000000 0.000000 0.000000 0.000000 0.000000 0.000000 0.000000 
